<svg width="100" height="48" viewBox="0 0 100 48" fill="none" xmlns="http://www.w3.org/2000/svg">
<g clip-path="url(#clip0_7_2)">
<path fill-rule="evenodd" clip-rule="evenodd" d="M77.5818 15.4964V17.0585H79.1425V15.4964H77.5818Z" fill="#0065DD"/>
<path fill-rule="evenodd" clip-rule="evenodd" d="M77.5818 7.75768V9.31973H79.1425V7.75768H77.5818Z" fill="#0065DD"/>
<path fill-rule="evenodd" clip-rule="evenodd" d="M56.8945 43.8791V45.4357H58.4548V43.8791H56.8945Z" fill="#0065DD"/>
<path fill-rule="evenodd" clip-rule="evenodd" d="M46.5482 43.8791V45.4357H48.114V43.8791H46.5482Z" fill="#0065DD"/>
<path fill-rule="evenodd" clip-rule="evenodd" d="M87.9286 43.8791V45.4357H89.4887V43.8791H87.9286Z" fill="#0065DD"/>
<path fill-rule="evenodd" clip-rule="evenodd" d="M87.9286 15.4964V17.0585H89.4887V15.4964H87.9286Z" fill="#0065DD"/>
<path fill-rule="evenodd" clip-rule="evenodd" d="M90.5125 15.4964V17.0585H92.0726V15.4964H90.5125Z" fill="#0065DD"/>
<path fill-rule="evenodd" clip-rule="evenodd" d="M67.2356 43.8791V45.4357H68.8017V43.8791H67.2356Z" fill="#0065DD"/>
<path fill-rule="evenodd" clip-rule="evenodd" d="M25.8606 15.4964V17.0585H27.4209V15.4964H25.8606Z" fill="#0065DD"/>
<path fill-rule="evenodd" clip-rule="evenodd" d="M41.3751 12.9187V14.4752H42.9409V12.9187H41.3751Z" fill="#0065DD"/>
<path fill-rule="evenodd" clip-rule="evenodd" d="M41.3751 15.4964V17.0585H42.9409V15.4964H41.3751Z" fill="#0065DD"/>
<path fill-rule="evenodd" clip-rule="evenodd" d="M82.7551 15.4964V17.0585H84.3159V15.4964H82.7551Z" fill="#0065DD"/>
<path fill-rule="evenodd" clip-rule="evenodd" d="M82.7551 7.75768V9.31973H84.3159V7.75768H82.7551Z" fill="#0065DD"/>
<path fill-rule="evenodd" clip-rule="evenodd" d="M87.9286 7.75768V9.31973H89.4887V7.75768H87.9286Z" fill="#0065DD"/>
<path fill-rule="evenodd" clip-rule="evenodd" d="M62.0674 43.8791V45.4357H63.6281V43.8791H62.0674Z" fill="#0065DD"/>
<path fill-rule="evenodd" clip-rule="evenodd" d="M51.7213 43.8791V45.4357H53.2816V43.8791H51.7213Z" fill="#0065DD"/>
<path fill-rule="evenodd" clip-rule="evenodd" d="M72.4088 43.8791V45.4357H73.9749V43.8791H72.4088Z" fill="#0065DD"/>
<path fill-rule="evenodd" clip-rule="evenodd" d="M72.4088 15.4964V17.0585H73.9749V15.4964H72.4088Z" fill="#0065DD"/>
<path fill-rule="evenodd" clip-rule="evenodd" d="M72.4088 12.9187V14.4752H73.9749V12.9187H72.4088Z" fill="#0065DD"/>
<path fill-rule="evenodd" clip-rule="evenodd" d="M36.2073 23.2406V24.7971H37.7675V23.2406H36.2073Z" fill="#0065DD"/>
<path fill-rule="evenodd" clip-rule="evenodd" d="M77.5818 23.2406V24.7971H79.1425V23.2406H77.5818Z" fill="#0065DD"/>
<path fill-rule="evenodd" clip-rule="evenodd" d="M56.8945 23.2406V24.7971H58.4548V23.2406H56.8945Z" fill="#0065DD"/>
<path fill-rule="evenodd" clip-rule="evenodd" d="M15.5145 23.2406V24.7971H17.0803V23.2406H15.5145Z" fill="#0065DD"/>
<path fill-rule="evenodd" clip-rule="evenodd" d="M46.5482 23.2406V24.7971H48.114V23.2406H46.5482Z" fill="#0065DD"/>
<path fill-rule="evenodd" clip-rule="evenodd" d="M67.2356 23.2406V24.7971H68.8017V23.2406H67.2356Z" fill="#0065DD"/>
<path fill-rule="evenodd" clip-rule="evenodd" d="M25.8606 23.2406V24.7971H27.4209V23.2406H25.8606Z" fill="#0065DD"/>
<path fill-rule="evenodd" clip-rule="evenodd" d="M41.3751 23.2406V24.7971H42.9409V23.2406H41.3751Z" fill="#0065DD"/>
<path fill-rule="evenodd" clip-rule="evenodd" d="M41.3751 7.75768V9.31973H42.9409V7.75768H41.3751Z" fill="#0065DD"/>
<path fill-rule="evenodd" clip-rule="evenodd" d="M82.7551 23.2406V24.7971H84.3159V23.2406H82.7551Z" fill="#0065DD"/>
<path fill-rule="evenodd" clip-rule="evenodd" d="M62.0674 23.2406V24.7971H63.6281V23.2406H62.0674Z" fill="#0065DD"/>
<path fill-rule="evenodd" clip-rule="evenodd" d="M20.6876 23.2406V24.7971H22.2534V23.2406H20.6876Z" fill="#0065DD"/>
<path fill-rule="evenodd" clip-rule="evenodd" d="M51.7213 23.2406V24.7971H53.2816V23.2406H51.7213Z" fill="#0065DD"/>
<path fill-rule="evenodd" clip-rule="evenodd" d="M51.7213 18.0797V19.6362H53.2816V18.0797H51.7213Z" fill="#0065DD"/>
<path fill-rule="evenodd" clip-rule="evenodd" d="M72.4088 23.2406V24.7971H73.9749V23.2406H72.4088Z" fill="#0065DD"/>
<path fill-rule="evenodd" clip-rule="evenodd" d="M31.0338 23.2406V24.7971H32.5942V23.2406H31.0338Z" fill="#0065DD"/>
<path fill-rule="evenodd" clip-rule="evenodd" d="M36.2073 15.4964V17.0585H37.7675V15.4964H36.2073Z" fill="#0065DD"/>
<path fill-rule="evenodd" clip-rule="evenodd" d="M80.1714 15.4964V17.0585H81.7315V15.4964H80.1714Z" fill="#0065DD"/>
<path fill-rule="evenodd" clip-rule="evenodd" d="M80.1714 7.75768V9.31973H81.7315V7.75768H80.1714Z" fill="#0065DD"/>
<path fill-rule="evenodd" clip-rule="evenodd" d="M59.4786 43.8791V45.4357H61.0442V43.8791H59.4786Z" fill="#0065DD"/>
<path fill-rule="evenodd" clip-rule="evenodd" d="M49.1378 43.8791V45.4357H50.6981V43.8791H49.1378Z" fill="#0065DD"/>
<path fill-rule="evenodd" clip-rule="evenodd" d="M69.8251 43.8791V45.4357H71.3852V43.8791H69.8251Z" fill="#0065DD"/>
<path fill-rule="evenodd" clip-rule="evenodd" d="M69.8251 15.4964V17.0585H71.3852V15.4964H69.8251Z" fill="#0065DD"/>
<path fill-rule="evenodd" clip-rule="evenodd" d="M28.4443 15.4964V17.0585H30.0102V15.4964H28.4443Z" fill="#0065DD"/>
<path fill-rule="evenodd" clip-rule="evenodd" d="M43.9645 12.9187V14.4752H45.5248V12.9187H43.9645Z" fill="#0065DD"/>
<path fill-rule="evenodd" clip-rule="evenodd" d="M43.9645 43.8791V45.4357H45.5248V43.8791H43.9645Z" fill="#0065DD"/>
<path fill-rule="evenodd" clip-rule="evenodd" d="M85.3394 15.4964V17.0585H86.9049V15.4964H85.3394Z" fill="#0065DD"/>
<path fill-rule="evenodd" clip-rule="evenodd" d="M85.3394 7.75768V9.31973H86.9049V7.75768H85.3394Z" fill="#0065DD"/>
<path fill-rule="evenodd" clip-rule="evenodd" d="M90.5125 7.75768V9.31973H92.078V7.75768H90.5125Z" fill="#0065DD"/>
<path fill-rule="evenodd" clip-rule="evenodd" d="M93.0438 7.75722V9.31934H94.6094V7.75722H93.0438Z" fill="#0065DD"/>
<path fill-rule="evenodd" clip-rule="evenodd" d="M90.5125 5.17992V6.73646H92.078V5.17992H90.5125Z" fill="#0065DD"/>
<path fill-rule="evenodd" clip-rule="evenodd" d="M93.0438 5.18196V6.73856H94.6094V5.18196H93.0438Z" fill="#0065DD"/>
<path fill-rule="evenodd" clip-rule="evenodd" d="M93.0438 5.18196V6.73856H94.6094V5.18196H93.0438Z" fill="#0065DD"/>
<path fill-rule="evenodd" clip-rule="evenodd" d="M64.6516 43.8791V45.4357H66.2116V43.8791H64.6516Z" fill="#0065DD"/>
<path fill-rule="evenodd" clip-rule="evenodd" d="M64.6516 15.4964V17.0585H66.2116V15.4964H64.6516Z" fill="#0065DD"/>
<path fill-rule="evenodd" clip-rule="evenodd" d="M54.3054 43.8791V45.4357H55.8712V43.8791H54.3054Z" fill="#0065DD"/>
<path fill-rule="evenodd" clip-rule="evenodd" d="M54.3054 15.4964V17.0585H55.8712V15.4964H54.3054Z" fill="#0065DD"/>
<path fill-rule="evenodd" clip-rule="evenodd" d="M56.8945 15.4964V17.0585H58.4548V15.4964H56.8945Z" fill="#0065DD"/>
<path fill-rule="evenodd" clip-rule="evenodd" d="M54.3054 12.9187V14.4752H55.8712V12.9187H54.3054Z" fill="#0065DD"/>
<path fill-rule="evenodd" clip-rule="evenodd" d="M74.9983 15.4964V17.0585H76.5584V15.4964H74.9983Z" fill="#0065DD"/>
<path fill-rule="evenodd" clip-rule="evenodd" d="M38.791 23.2406V24.7971H40.3513V23.2406H38.791Z" fill="#0065DD"/>
<path fill-rule="evenodd" clip-rule="evenodd" d="M80.1714 23.2406V24.7971H81.7315V23.2406H80.1714Z" fill="#0065DD"/>
<path fill-rule="evenodd" clip-rule="evenodd" d="M59.4786 23.2406V24.7971H61.0442V23.2406H59.4786Z" fill="#0065DD"/>
<path fill-rule="evenodd" clip-rule="evenodd" d="M18.1035 23.2406V24.7971H19.6638V23.2406H18.1035Z" fill="#0065DD"/>
<path fill-rule="evenodd" clip-rule="evenodd" d="M49.1378 23.2406V24.7971H50.6981V23.2406H49.1378Z" fill="#0065DD"/>
<path fill-rule="evenodd" clip-rule="evenodd" d="M69.8251 23.2406V24.7971H71.3852V23.2406H69.8251Z" fill="#0065DD"/>
<path fill-rule="evenodd" clip-rule="evenodd" d="M28.4443 23.2406V24.7971H30.0102V23.2406H28.4443Z" fill="#0065DD"/>
<path fill-rule="evenodd" clip-rule="evenodd" d="M43.9645 23.2406V24.7971H45.5248V23.2406H43.9645Z" fill="#0065DD"/>
<path fill-rule="evenodd" clip-rule="evenodd" d="M43.9645 7.75768V9.31973H45.5248V7.75768H43.9645Z" fill="#0065DD"/>
<path fill-rule="evenodd" clip-rule="evenodd" d="M64.6516 23.2406V24.7971H66.2116V23.2406H64.6516Z" fill="#0065DD"/>
<path fill-rule="evenodd" clip-rule="evenodd" d="M23.2769 23.2406V24.7971H24.8371V23.2406H23.2769Z" fill="#0065DD"/>
<path fill-rule="evenodd" clip-rule="evenodd" d="M54.3054 23.2406V24.7971H55.8712V23.2406H54.3054Z" fill="#0065DD"/>
<path fill-rule="evenodd" clip-rule="evenodd" d="M74.9983 23.2406V24.7971H76.5584V23.2406H74.9983Z" fill="#0065DD"/>
<path fill-rule="evenodd" clip-rule="evenodd" d="M33.618 23.2406V24.7971H35.1838V23.2406H33.618Z" fill="#0065DD"/>
<path fill-rule="evenodd" clip-rule="evenodd" d="M36.2073 33.5571V35.1192H37.7675V33.5571H36.2073Z" fill="#0065DD"/>
<path fill-rule="evenodd" clip-rule="evenodd" d="M77.5818 33.5571V35.1192H79.1425V33.5571H77.5818Z" fill="#0065DD"/>
<path fill-rule="evenodd" clip-rule="evenodd" d="M56.8945 33.5571V35.1192H58.4548V33.5571H56.8945Z" fill="#0065DD"/>
<path fill-rule="evenodd" clip-rule="evenodd" d="M15.5145 33.5571V35.1192H17.0803V33.5571H15.5145Z" fill="#0065DD"/>
<path fill-rule="evenodd" clip-rule="evenodd" d="M46.5482 33.5571V35.1192H48.114V33.5571H46.5482Z" fill="#0065DD"/>
<path fill-rule="evenodd" clip-rule="evenodd" d="M87.9286 33.5571V35.1192H89.4887V33.5571H87.9286Z" fill="#0065DD"/>
<path fill-rule="evenodd" clip-rule="evenodd" d="M87.9286 30.9793V32.5359H89.4887V30.9793H87.9286Z" fill="#0065DD"/>
<path fill-rule="evenodd" clip-rule="evenodd" d="M67.2356 33.5571V35.1192H68.8017V33.5571H67.2356Z" fill="#0065DD"/>
<path fill-rule="evenodd" clip-rule="evenodd" d="M25.8606 33.5571V35.1192H27.4209V33.5571H25.8606Z" fill="#0065DD"/>
<path fill-rule="evenodd" clip-rule="evenodd" d="M41.3751 33.5571V35.1192H42.9409V33.5571H41.3751Z" fill="#0065DD"/>
<path fill-rule="evenodd" clip-rule="evenodd" d="M62.0674 33.5571V35.1192H63.6281V33.5571H62.0674Z" fill="#0065DD"/>
<path fill-rule="evenodd" clip-rule="evenodd" d="M20.6876 33.5571V35.1192H22.2534V33.5571H20.6876Z" fill="#0065DD"/>
<path fill-rule="evenodd" clip-rule="evenodd" d="M20.6876 36.1403V37.6969H22.2534V36.1403H20.6876Z" fill="#0065DD"/>
<path fill-rule="evenodd" clip-rule="evenodd" d="M51.7213 33.5571V35.1192H53.2816V33.5571H51.7213Z" fill="#0065DD"/>
<path fill-rule="evenodd" clip-rule="evenodd" d="M72.4088 33.5571V35.1192H73.9749V33.5571H72.4088Z" fill="#0065DD"/>
<path fill-rule="evenodd" clip-rule="evenodd" d="M31.0338 33.5571V35.1192H32.5942V33.5571H31.0338Z" fill="#0065DD"/>
<path fill-rule="evenodd" clip-rule="evenodd" d="M38.791 33.5571V35.1192H40.3513V33.5571H38.791Z" fill="#0065DD"/>
<path fill-rule="evenodd" clip-rule="evenodd" d="M80.1714 33.5571V35.1192H81.7315V33.5571H80.1714Z" fill="#0065DD"/>
<path fill-rule="evenodd" clip-rule="evenodd" d="M59.4786 33.5571V35.1192H61.0442V33.5571H59.4786Z" fill="#0065DD"/>
<path fill-rule="evenodd" clip-rule="evenodd" d="M18.1035 33.5571V35.1192H19.6638V33.5571H18.1035Z" fill="#0065DD"/>
<path fill-rule="evenodd" clip-rule="evenodd" d="M49.1378 33.5571V35.1192H50.6981V33.5571H49.1378Z" fill="#0065DD"/>
<path fill-rule="evenodd" clip-rule="evenodd" d="M90.5125 33.5571V35.1192H92.0726V33.5571H90.5125Z" fill="#0065DD"/>
<path fill-rule="evenodd" clip-rule="evenodd" d="M69.8251 33.5571V35.1192H71.3852V33.5571H69.8251Z" fill="#0065DD"/>
<path fill-rule="evenodd" clip-rule="evenodd" d="M28.4443 33.5571V35.1192H30.0102V33.5571H28.4443Z" fill="#0065DD"/>
<path fill-rule="evenodd" clip-rule="evenodd" d="M43.9645 33.5571V35.1192H45.5248V33.5571H43.9645Z" fill="#0065DD"/>
<path fill-rule="evenodd" clip-rule="evenodd" d="M85.3394 33.5571V35.1192H86.9049V33.5571H85.3394Z" fill="#0065DD"/>
<path fill-rule="evenodd" clip-rule="evenodd" d="M82.7551 33.5571V35.1192H84.3159V33.5571H82.7551Z" fill="#0065DD"/>
<path fill-rule="evenodd" clip-rule="evenodd" d="M64.6516 33.5571V35.1192H66.2116V33.5571H64.6516Z" fill="#0065DD"/>
<path fill-rule="evenodd" clip-rule="evenodd" d="M23.2769 33.5571V35.1192H24.8371V33.5571H23.2769Z" fill="#0065DD"/>
<path fill-rule="evenodd" clip-rule="evenodd" d="M23.2769 36.1403V37.6969H24.8371V36.1403H23.2769Z" fill="#0065DD"/>
<path fill-rule="evenodd" clip-rule="evenodd" d="M54.3054 33.5571V35.1192H55.8712V33.5571H54.3054Z" fill="#0065DD"/>
<path fill-rule="evenodd" clip-rule="evenodd" d="M12.9304 33.5571V35.1192H14.4907V33.5571H12.9304Z" fill="#0065DD"/>
<path fill-rule="evenodd" clip-rule="evenodd" d="M74.9983 33.5571V35.1192H76.5584V33.5571H74.9983Z" fill="#0065DD"/>
<path fill-rule="evenodd" clip-rule="evenodd" d="M33.618 33.5571V35.1192H35.1838V33.5571H33.618Z" fill="#0065DD"/>
<path fill-rule="evenodd" clip-rule="evenodd" d="M36.2073 38.7181V40.2747H37.7675V38.7181H36.2073Z" fill="#0065DD"/>
<path fill-rule="evenodd" clip-rule="evenodd" d="M77.5818 10.341V11.8975H79.1425V10.341H77.5818Z" fill="#0065DD"/>
<path fill-rule="evenodd" clip-rule="evenodd" d="M56.8945 38.7181V40.2747H58.4548V38.7181H56.8945Z" fill="#0065DD"/>
<path fill-rule="evenodd" clip-rule="evenodd" d="M56.8945 46.4568V48.0189H58.4548V46.4568H56.8945Z" fill="#0065DD"/>
<path fill-rule="evenodd" clip-rule="evenodd" d="M15.5145 38.7181V40.2747H17.0803V38.7181H15.5145Z" fill="#0065DD"/>
<path fill-rule="evenodd" clip-rule="evenodd" d="M18.1035 38.7181V40.2747H19.6638V38.7181H18.1035Z" fill="#0065DD"/>
<path fill-rule="evenodd" clip-rule="evenodd" d="M46.5482 38.7181V40.2747H48.114V38.7181H46.5482Z" fill="#0065DD"/>
<path fill-rule="evenodd" clip-rule="evenodd" d="M46.5482 46.4568V48.0189H48.114V46.4568H46.5482Z" fill="#0065DD"/>
<path fill-rule="evenodd" clip-rule="evenodd" d="M87.9286 38.7181V40.2747H89.4887V38.7181H87.9286Z" fill="#0065DD"/>
<path fill-rule="evenodd" clip-rule="evenodd" d="M67.2356 38.7181V40.2747H68.8017V38.7181H67.2356Z" fill="#0065DD"/>
<path fill-rule="evenodd" clip-rule="evenodd" d="M67.2356 46.4568V48.0189H68.8017V46.4568H67.2356Z" fill="#0065DD"/>
<path fill-rule="evenodd" clip-rule="evenodd" d="M25.8606 38.7181V40.2747H27.4209V38.7181H25.8606Z" fill="#0065DD"/>
<path fill-rule="evenodd" clip-rule="evenodd" d="M41.3751 38.7181V40.2747H42.9409V38.7181H41.3751Z" fill="#0065DD"/>
<path fill-rule="evenodd" clip-rule="evenodd" d="M82.7551 38.7181V40.2747H84.3159V38.7181H82.7551Z" fill="#0065DD"/>
<path fill-rule="evenodd" clip-rule="evenodd" d="M82.7551 10.341V11.8975H84.3159V10.341H82.7551Z" fill="#0065DD"/>
<path fill-rule="evenodd" clip-rule="evenodd" d="M87.9286 10.341V11.8975H89.4887V10.341H87.9286Z" fill="#0065DD"/>
<path fill-rule="evenodd" clip-rule="evenodd" d="M82.7551 2.59666V4.15876H84.3159V2.59666H82.7551Z" fill="#0065DD"/>
<path fill-rule="evenodd" clip-rule="evenodd" d="M87.9286 2.59666V4.15876H89.4887V2.59666H87.9286Z" fill="#0065DD"/>
<path fill-rule="evenodd" clip-rule="evenodd" d="M87.9286 0.0189209V1.5755H89.4887V0.0189209H87.9286Z" fill="#0065DD"/>
<path fill-rule="evenodd" clip-rule="evenodd" d="M62.0674 38.7181V40.2747H63.6281V38.7181H62.0674Z" fill="#0065DD"/>
<path fill-rule="evenodd" clip-rule="evenodd" d="M51.7213 38.7181V40.2747H53.2816V38.7181H51.7213Z" fill="#0065DD"/>
<path fill-rule="evenodd" clip-rule="evenodd" d="M51.7213 46.4568V48.0189H53.2816V46.4568H51.7213Z" fill="#0065DD"/>
<path fill-rule="evenodd" clip-rule="evenodd" d="M10.3466 38.7181V40.2747H11.9069V38.7181H10.3466Z" fill="#0065DD"/>
<path fill-rule="evenodd" clip-rule="evenodd" d="M7.75714 38.7181V40.2747H9.32292V38.7181H7.75714Z" fill="#0065DD"/>
<path fill-rule="evenodd" clip-rule="evenodd" d="M72.4088 38.7181V40.2747H73.9749V38.7181H72.4088Z" fill="#0065DD"/>
<path fill-rule="evenodd" clip-rule="evenodd" d="M31.0338 38.7181V40.2747H32.5942V38.7181H31.0338Z" fill="#0065DD"/>
<path fill-rule="evenodd" clip-rule="evenodd" d="M77.5818 18.0797V19.6362H79.1425V18.0797H77.5818Z" fill="#0065DD"/>
<path fill-rule="evenodd" clip-rule="evenodd" d="M56.8945 18.0797V19.6362H58.4548V18.0797H56.8945Z" fill="#0065DD"/>
<path fill-rule="evenodd" clip-rule="evenodd" d="M87.9286 18.0797V19.6362H89.4887V18.0797H87.9286Z" fill="#0065DD"/>
<path fill-rule="evenodd" clip-rule="evenodd" d="M90.5125 18.0797V19.6362H92.0726V18.0797H90.5125Z" fill="#0065DD"/>
<path fill-rule="evenodd" clip-rule="evenodd" d="M93.1016 18.0797V19.6362H94.6623V18.0797H93.1016Z" fill="#0065DD"/>
<path fill-rule="evenodd" clip-rule="evenodd" d="M90.5125 20.6574V22.2195H92.0726V20.6574H90.5125Z" fill="#0065DD"/>
<path fill-rule="evenodd" clip-rule="evenodd" d="M93.1016 20.6574V22.2195H94.6623V20.6574H93.1016Z" fill="#0065DD"/>
<path fill-rule="evenodd" clip-rule="evenodd" d="M25.8606 18.0797V19.6362H27.4209V18.0797H25.8606Z" fill="#0065DD"/>
<path fill-rule="evenodd" clip-rule="evenodd" d="M82.7551 18.0797V19.6362H84.3159V18.0797H82.7551Z" fill="#0065DD"/>
<path fill-rule="evenodd" clip-rule="evenodd" d="M85.3394 18.0797V19.6362H86.9049V18.0797H85.3394Z" fill="#0065DD"/>
<path fill-rule="evenodd" clip-rule="evenodd" d="M62.0674 18.0797V19.6362H63.6281V18.0797H62.0674Z" fill="#0065DD"/>
<path fill-rule="evenodd" clip-rule="evenodd" d="M59.4786 18.0797V19.6362H61.0442V18.0797H59.4786Z" fill="#0065DD"/>
<path fill-rule="evenodd" clip-rule="evenodd" d="M20.6876 18.0797V19.6362H22.2534V18.0797H20.6876Z" fill="#0065DD"/>
<path fill-rule="evenodd" clip-rule="evenodd" d="M72.4088 18.0797V19.6362H73.9749V18.0797H72.4088Z" fill="#0065DD"/>
<path fill-rule="evenodd" clip-rule="evenodd" d="M31.0338 18.0797V19.6362H32.5942V18.0797H31.0338Z" fill="#0065DD"/>
<path fill-rule="evenodd" clip-rule="evenodd" d="M38.791 38.7181V40.2747H40.3513V38.7181H38.791Z" fill="#0065DD"/>
<path fill-rule="evenodd" clip-rule="evenodd" d="M80.1714 38.7181V40.2747H81.7315V38.7181H80.1714Z" fill="#0065DD"/>
<path fill-rule="evenodd" clip-rule="evenodd" d="M80.1714 10.341V11.8975H81.7315V10.341H80.1714Z" fill="#0065DD"/>
<path fill-rule="evenodd" clip-rule="evenodd" d="M80.1714 2.59666V4.15876H81.7315V2.59666H80.1714Z" fill="#0065DD"/>
<path fill-rule="evenodd" clip-rule="evenodd" d="M85.3394 2.59666V4.15876H86.9049V2.59666H85.3394Z" fill="#0065DD"/>
<path fill-rule="evenodd" clip-rule="evenodd" d="M85.3394 0.0189209V1.5755H86.9049V0.0189209H85.3394Z" fill="#0065DD"/>
<path fill-rule="evenodd" clip-rule="evenodd" d="M59.4786 38.7181V40.2747H61.0442V38.7181H59.4786Z" fill="#0065DD"/>
<path fill-rule="evenodd" clip-rule="evenodd" d="M49.1378 38.7181V40.2747H50.6981V38.7181H49.1378Z" fill="#0065DD"/>
<path fill-rule="evenodd" clip-rule="evenodd" d="M49.1378 46.4568V48.0189H50.6981V46.4568H49.1378Z" fill="#0065DD"/>
<path fill-rule="evenodd" clip-rule="evenodd" d="M69.8251 38.7181V40.2747H71.3852V38.7181H69.8251Z" fill="#0065DD"/>
<path fill-rule="evenodd" clip-rule="evenodd" d="M28.4443 38.7181V40.2747H30.0102V38.7181H28.4443Z" fill="#0065DD"/>
<path fill-rule="evenodd" clip-rule="evenodd" d="M43.9645 38.7181V40.2747H45.5248V38.7181H43.9645Z" fill="#0065DD"/>
<path fill-rule="evenodd" clip-rule="evenodd" d="M85.3394 38.7181V40.2747H86.9049V38.7181H85.3394Z" fill="#0065DD"/>
<path fill-rule="evenodd" clip-rule="evenodd" d="M85.3394 10.341V11.8975H86.9049V10.341H85.3394Z" fill="#0065DD"/>
<path fill-rule="evenodd" clip-rule="evenodd" d="M90.5125 10.341V11.8975H92.078V10.341H90.5125Z" fill="#0065DD"/>
<path fill-rule="evenodd" clip-rule="evenodd" d="M95.4453 10.3384V11.895H97.0109V10.3384H95.4453Z" fill="#0065DD"/>
<path fill-rule="evenodd" clip-rule="evenodd" d="M64.6516 38.7181V40.2747H66.2116V38.7181H64.6516Z" fill="#0065DD"/>
<path fill-rule="evenodd" clip-rule="evenodd" d="M54.3054 38.7181V40.2747H55.8712V38.7181H54.3054Z" fill="#0065DD"/>
<path fill-rule="evenodd" clip-rule="evenodd" d="M54.3054 46.4568V48.0189H55.8712V46.4568H54.3054Z" fill="#0065DD"/>
<path fill-rule="evenodd" clip-rule="evenodd" d="M12.9304 38.7181V40.2747H14.4907V38.7181H12.9304Z" fill="#0065DD"/>
<path fill-rule="evenodd" clip-rule="evenodd" d="M12.9304 46.4568V48.0189H14.4907V46.4568H12.9304Z" fill="#0065DD"/>
<path fill-rule="evenodd" clip-rule="evenodd" d="M33.618 38.7181V40.2747H35.1838V38.7181H33.618Z" fill="#0065DD"/>
<path fill-rule="evenodd" clip-rule="evenodd" d="M36.2073 18.0797V19.6362H37.7675V18.0797H36.2073Z" fill="#0065DD"/>
<path fill-rule="evenodd" clip-rule="evenodd" d="M80.1714 18.0797V19.6362H81.7315V18.0797H80.1714Z" fill="#0065DD"/>
<path fill-rule="evenodd" clip-rule="evenodd" d="M95.6855 20.6574V22.2195H97.2457V20.6574H95.6855Z" fill="#0065DD"/>
<path fill-rule="evenodd" clip-rule="evenodd" d="M69.8251 18.0797V19.6362H71.3852V18.0797H69.8251Z" fill="#0065DD"/>
<path fill-rule="evenodd" clip-rule="evenodd" d="M28.4443 18.0797V19.6362H30.0102V18.0797H28.4443Z" fill="#0065DD"/>
<path fill-rule="evenodd" clip-rule="evenodd" d="M23.2769 18.0797V19.6362H24.8371V18.0797H23.2769Z" fill="#0065DD"/>
<path fill-rule="evenodd" clip-rule="evenodd" d="M54.3054 18.0797V19.6362H55.8712V18.0797H54.3054Z" fill="#0065DD"/>
<path fill-rule="evenodd" clip-rule="evenodd" d="M74.9983 18.0797V19.6362H76.5584V18.0797H74.9983Z" fill="#0065DD"/>
<path fill-rule="evenodd" clip-rule="evenodd" d="M36.2073 28.3961V29.9582H37.7675V28.3961H36.2073Z" fill="#0065DD"/>
<path fill-rule="evenodd" clip-rule="evenodd" d="M77.5818 28.3961V29.9582H79.1425V28.3961H77.5818Z" fill="#0065DD"/>
<path fill-rule="evenodd" clip-rule="evenodd" d="M56.8945 28.3961V29.9582H58.4548V28.3961H56.8945Z" fill="#0065DD"/>
<path fill-rule="evenodd" clip-rule="evenodd" d="M15.5145 28.3961V29.9582H17.0803V28.3961H15.5145Z" fill="#0065DD"/>
<path fill-rule="evenodd" clip-rule="evenodd" d="M46.5482 28.3961V29.9582H48.114V28.3961H46.5482Z" fill="#0065DD"/>
<path fill-rule="evenodd" clip-rule="evenodd" d="M67.2356 28.3961V29.9582H68.8017V28.3961H67.2356Z" fill="#0065DD"/>
<path fill-rule="evenodd" clip-rule="evenodd" d="M25.8606 28.3961V29.9582H27.4209V28.3961H25.8606Z" fill="#0065DD"/>
<path fill-rule="evenodd" clip-rule="evenodd" d="M41.3751 28.3961V29.9582H42.9409V28.3961H41.3751Z" fill="#0065DD"/>
<path fill-rule="evenodd" clip-rule="evenodd" d="M62.0674 28.3961V29.9582H63.6281V28.3961H62.0674Z" fill="#0065DD"/>
<path fill-rule="evenodd" clip-rule="evenodd" d="M20.6876 28.3961V29.9582H22.2534V28.3961H20.6876Z" fill="#0065DD"/>
<path fill-rule="evenodd" clip-rule="evenodd" d="M51.7213 28.3961V29.9582H53.2816V28.3961H51.7213Z" fill="#0065DD"/>
<path fill-rule="evenodd" clip-rule="evenodd" d="M72.4088 28.3961V29.9582H73.9749V28.3961H72.4088Z" fill="#0065DD"/>
<path fill-rule="evenodd" clip-rule="evenodd" d="M12.9304 28.3961V29.9582H14.4907V28.3961H12.9304Z" fill="#0065DD"/>
<path fill-rule="evenodd" clip-rule="evenodd" d="M31.0338 28.3961V29.9582H32.5942V28.3961H31.0338Z" fill="#0065DD"/>
<path fill-rule="evenodd" clip-rule="evenodd" d="M38.791 28.3961V29.9582H40.3513V28.3961H38.791Z" fill="#0065DD"/>
<path fill-rule="evenodd" clip-rule="evenodd" d="M80.1714 28.3961V29.9582H81.7315V28.3961H80.1714Z" fill="#0065DD"/>
<path fill-rule="evenodd" clip-rule="evenodd" d="M59.4786 28.3961V29.9582H61.0442V28.3961H59.4786Z" fill="#0065DD"/>
<path fill-rule="evenodd" clip-rule="evenodd" d="M18.1035 28.3961V29.9582H19.6638V28.3961H18.1035Z" fill="#0065DD"/>
<path fill-rule="evenodd" clip-rule="evenodd" d="M49.1378 28.3961V29.9582H50.6981V28.3961H49.1378Z" fill="#0065DD"/>
<path fill-rule="evenodd" clip-rule="evenodd" d="M69.8251 28.3961V29.9582H71.3852V28.3961H69.8251Z" fill="#0065DD"/>
<path fill-rule="evenodd" clip-rule="evenodd" d="M28.4443 28.3961V29.9582H30.0102V28.3961H28.4443Z" fill="#0065DD"/>
<path fill-rule="evenodd" clip-rule="evenodd" d="M43.9645 28.3961V29.9582H45.5248V28.3961H43.9645Z" fill="#0065DD"/>
<path fill-rule="evenodd" clip-rule="evenodd" d="M64.6516 28.3961V29.9582H66.2116V28.3961H64.6516Z" fill="#0065DD"/>
<path fill-rule="evenodd" clip-rule="evenodd" d="M23.2769 28.3961V29.9582H24.8371V28.3961H23.2769Z" fill="#0065DD"/>
<path fill-rule="evenodd" clip-rule="evenodd" d="M54.3054 28.3961V29.9582H55.8712V28.3961H54.3054Z" fill="#0065DD"/>
<path fill-rule="evenodd" clip-rule="evenodd" d="M74.9983 28.3961V29.9582H76.5584V28.3961H74.9983Z" fill="#0065DD"/>
<path fill-rule="evenodd" clip-rule="evenodd" d="M33.618 28.3961V29.9582H35.1838V28.3961H33.618Z" fill="#0065DD"/>
<path fill-rule="evenodd" clip-rule="evenodd" d="M77.5818 12.9187V14.4752H79.1425V12.9187H77.5818Z" fill="#0065DD"/>
<path fill-rule="evenodd" clip-rule="evenodd" d="M77.5818 5.17992V6.73646H79.1425V5.17992H77.5818Z" fill="#0065DD"/>
<path fill-rule="evenodd" clip-rule="evenodd" d="M56.8945 41.3013V42.8579H58.4548V41.3013H56.8945Z" fill="#0065DD"/>
<path fill-rule="evenodd" clip-rule="evenodd" d="M46.5482 41.3013V42.8579H48.114V41.3013H46.5482Z" fill="#0065DD"/>
<path fill-rule="evenodd" clip-rule="evenodd" d="M87.9286 41.3013V42.8579H89.4887V41.3013H87.9286Z" fill="#0065DD"/>
<path fill-rule="evenodd" clip-rule="evenodd" d="M87.9286 12.9187V14.4752H89.4887V12.9187H87.9286Z" fill="#0065DD"/>
<path fill-rule="evenodd" clip-rule="evenodd" d="M67.2356 41.3013V42.8579H68.8017V41.3013H67.2356Z" fill="#0065DD"/>
<path fill-rule="evenodd" clip-rule="evenodd" d="M67.2356 12.9187V14.4752H68.8017V12.9187H67.2356Z" fill="#0065DD"/>
<path fill-rule="evenodd" clip-rule="evenodd" d="M67.2356 10.341V11.8975H68.8017V10.341H67.2356Z" fill="#0065DD"/>
<path fill-rule="evenodd" clip-rule="evenodd" d="M41.3751 41.3013V42.8579H42.9409V41.3013H41.3751Z" fill="#0065DD"/>
<path fill-rule="evenodd" clip-rule="evenodd" d="M82.7551 12.9187V14.4752H84.3159V12.9187H82.7551Z" fill="#0065DD"/>
<path fill-rule="evenodd" clip-rule="evenodd" d="M82.7551 5.17992V6.73646H84.3159V5.17992H82.7551Z" fill="#0065DD"/>
<path fill-rule="evenodd" clip-rule="evenodd" d="M87.9286 5.17992V6.73646H89.4887V5.17992H87.9286Z" fill="#0065DD"/>
<path fill-rule="evenodd" clip-rule="evenodd" d="M62.0674 41.3013V42.8579H63.6281V41.3013H62.0674Z" fill="#0065DD"/>
<path fill-rule="evenodd" clip-rule="evenodd" d="M51.7213 41.3013V42.8579H53.2816V41.3013H51.7213Z" fill="#0065DD"/>
<path fill-rule="evenodd" clip-rule="evenodd" d="M10.3466 41.3013V42.8579H11.9069V41.3013H10.3466Z" fill="#0065DD"/>
<path fill-rule="evenodd" clip-rule="evenodd" d="M72.4088 41.3013V42.8579H73.9749V41.3013H72.4088Z" fill="#0065DD"/>
<path fill-rule="evenodd" clip-rule="evenodd" d="M36.2073 20.6574V22.2195H37.7675V20.6574H36.2073Z" fill="#0065DD"/>
<path fill-rule="evenodd" clip-rule="evenodd" d="M77.5818 20.6574V22.2195H79.1425V20.6574H77.5818Z" fill="#0065DD"/>
<path fill-rule="evenodd" clip-rule="evenodd" d="M56.8945 20.6574V22.2195H58.4548V20.6574H56.8945Z" fill="#0065DD"/>
<path fill-rule="evenodd" clip-rule="evenodd" d="M46.5482 20.6574V22.2195H48.114V20.6574H46.5482Z" fill="#0065DD"/>
<path fill-rule="evenodd" clip-rule="evenodd" d="M87.9286 20.6574V22.2195H89.4887V20.6574H87.9286Z" fill="#0065DD"/>
<path fill-rule="evenodd" clip-rule="evenodd" d="M67.2356 20.6574V22.2195H68.8017V20.6574H67.2356Z" fill="#0065DD"/>
<path fill-rule="evenodd" clip-rule="evenodd" d="M67.2356 18.0797V19.6362H68.8017V18.0797H67.2356Z" fill="#0065DD"/>
<path fill-rule="evenodd" clip-rule="evenodd" d="M25.8606 20.6574V22.2195H27.4209V20.6574H25.8606Z" fill="#0065DD"/>
<path fill-rule="evenodd" clip-rule="evenodd" d="M41.3751 20.6574V22.2195H42.9409V20.6574H41.3751Z" fill="#0065DD"/>
<path fill-rule="evenodd" clip-rule="evenodd" d="M82.7551 20.6574V22.2195H84.3159V20.6574H82.7551Z" fill="#0065DD"/>
<path fill-rule="evenodd" clip-rule="evenodd" d="M85.3394 20.6574V22.2195H86.9049V20.6574H85.3394Z" fill="#0065DD"/>
<path fill-rule="evenodd" clip-rule="evenodd" d="M62.0674 20.6574V22.2195H63.6281V20.6574H62.0674Z" fill="#0065DD"/>
<path fill-rule="evenodd" clip-rule="evenodd" d="M20.6876 20.6574V22.2195H22.2534V20.6574H20.6876Z" fill="#0065DD"/>
<path fill-rule="evenodd" clip-rule="evenodd" d="M51.7213 20.6574V22.2195H53.2816V20.6574H51.7213Z" fill="#0065DD"/>
<path fill-rule="evenodd" clip-rule="evenodd" d="M51.7213 15.4964V17.0585H53.2816V15.4964H51.7213Z" fill="#0065DD"/>
<path fill-rule="evenodd" clip-rule="evenodd" d="M51.7213 10.341V11.8975H53.2816V10.341H51.7213Z" fill="#0065DD"/>
<path fill-rule="evenodd" clip-rule="evenodd" d="M72.4088 20.6574V22.2195H73.9749V20.6574H72.4088Z" fill="#0065DD"/>
<path fill-rule="evenodd" clip-rule="evenodd" d="M31.0338 20.6574V22.2195H32.5942V20.6574H31.0338Z" fill="#0065DD"/>
<path fill-rule="evenodd" clip-rule="evenodd" d="M38.791 41.3013V42.8579H40.3513V41.3013H38.791Z" fill="#0065DD"/>
<path fill-rule="evenodd" clip-rule="evenodd" d="M80.1714 12.9187V14.4752H81.7315V12.9187H80.1714Z" fill="#0065DD"/>
<path fill-rule="evenodd" clip-rule="evenodd" d="M80.1714 5.17992V6.73646H81.7315V5.17992H80.1714Z" fill="#0065DD"/>
<path fill-rule="evenodd" clip-rule="evenodd" d="M85.3394 5.17992V6.73646H86.9049V5.17992H85.3394Z" fill="#0065DD"/>
<path fill-rule="evenodd" clip-rule="evenodd" d="M59.4786 41.3013V42.8579H61.0442V41.3013H59.4786Z" fill="#0065DD"/>
<path fill-rule="evenodd" clip-rule="evenodd" d="M49.1378 41.3013V42.8579H50.6981V41.3013H49.1378Z" fill="#0065DD"/>
<path fill-rule="evenodd" clip-rule="evenodd" d="M69.8251 41.3013V42.8579H71.3852V41.3013H69.8251Z" fill="#0065DD"/>
<path fill-rule="evenodd" clip-rule="evenodd" d="M28.4443 41.3013V42.8579H30.0102V41.3013H28.4443Z" fill="#0065DD"/>
<path fill-rule="evenodd" clip-rule="evenodd" d="M43.9645 41.3013V42.8579H45.5248V41.3013H43.9645Z" fill="#0065DD"/>
<path fill-rule="evenodd" clip-rule="evenodd" d="M85.3394 41.3013V42.8579H86.9049V41.3013H85.3394Z" fill="#0065DD"/>
<path fill-rule="evenodd" clip-rule="evenodd" d="M85.3394 12.9187V14.4752H86.9049V12.9187H85.3394Z" fill="#0065DD"/>
<path fill-rule="evenodd" clip-rule="evenodd" d="M64.6516 41.3013V42.8579H66.2116V41.3013H64.6516Z" fill="#0065DD"/>
<path fill-rule="evenodd" clip-rule="evenodd" d="M54.3054 41.3013V42.8579H55.8712V41.3013H54.3054Z" fill="#0065DD"/>
<path fill-rule="evenodd" clip-rule="evenodd" d="M54.3054 10.341V11.8975H55.8712V10.341H54.3054Z" fill="#0065DD"/>
<path fill-rule="evenodd" clip-rule="evenodd" d="M12.9304 41.3013V42.8579H14.4907V41.3013H12.9304Z" fill="#0065DD"/>
<path fill-rule="evenodd" clip-rule="evenodd" d="M74.9983 12.9187V14.4752H76.5584V12.9187H74.9983Z" fill="#0065DD"/>
<path fill-rule="evenodd" clip-rule="evenodd" d="M38.791 20.6574V22.2195H40.3513V20.6574H38.791Z" fill="#0065DD"/>
<path fill-rule="evenodd" clip-rule="evenodd" d="M38.791 15.4964V17.0585H40.3513V15.4964H38.791Z" fill="#0065DD"/>
<path fill-rule="evenodd" clip-rule="evenodd" d="M80.1714 20.6574V22.2195H81.7315V20.6574H80.1714Z" fill="#0065DD"/>
<path fill-rule="evenodd" clip-rule="evenodd" d="M59.4786 20.6574V22.2195H61.0442V20.6574H59.4786Z" fill="#0065DD"/>
<path fill-rule="evenodd" clip-rule="evenodd" d="M59.4786 15.4964V17.0585H61.0442V15.4964H59.4786Z" fill="#0065DD"/>
<path fill-rule="evenodd" clip-rule="evenodd" d="M18.1035 20.6574V22.2195H19.6638V20.6574H18.1035Z" fill="#0065DD"/>
<path fill-rule="evenodd" clip-rule="evenodd" d="M49.1378 20.6574V22.2195H50.6981V20.6574H49.1378Z" fill="#0065DD"/>
<path fill-rule="evenodd" clip-rule="evenodd" d="M95.6855 23.2406V24.7971H97.2457V23.2406H95.6855Z" fill="#0065DD"/>
<path fill-rule="evenodd" clip-rule="evenodd" d="M69.8251 20.6574V22.2195H71.3852V20.6574H69.8251Z" fill="#0065DD"/>
<path fill-rule="evenodd" clip-rule="evenodd" d="M28.4443 20.6574V22.2195H30.0102V20.6574H28.4443Z" fill="#0065DD"/>
<path fill-rule="evenodd" clip-rule="evenodd" d="M10.3466 20.6574V22.2195H11.9069V20.6574H10.3466Z" fill="#0065DD"/>
<path fill-rule="evenodd" clip-rule="evenodd" d="M43.9645 20.6574V22.2195H45.5248V20.6574H43.9645Z" fill="#0065DD"/>
<path fill-rule="evenodd" clip-rule="evenodd" d="M64.6516 20.6574V22.2195H66.2116V20.6574H64.6516Z" fill="#0065DD"/>
<path fill-rule="evenodd" clip-rule="evenodd" d="M64.6516 18.0797V19.6362H66.2116V18.0797H64.6516Z" fill="#0065DD"/>
<path fill-rule="evenodd" clip-rule="evenodd" d="M23.2769 20.6574V22.2195H24.8371V20.6574H23.2769Z" fill="#0065DD"/>
<path fill-rule="evenodd" clip-rule="evenodd" d="M54.3054 20.6574V22.2195H55.8712V20.6574H54.3054Z" fill="#0065DD"/>
<path fill-rule="evenodd" clip-rule="evenodd" d="M74.9983 20.6574V22.2195H76.5584V20.6574H74.9983Z" fill="#0065DD"/>
<path fill-rule="evenodd" clip-rule="evenodd" d="M33.618 20.6574V22.2195H35.1838V20.6574H33.618Z" fill="#0065DD"/>
<path fill-rule="evenodd" clip-rule="evenodd" d="M15.5145 20.6574V22.2195H17.0803V20.6574H15.5145Z" fill="#0065DD"/>
<path fill-rule="evenodd" clip-rule="evenodd" d="M36.2073 30.9793V32.5359H37.7675V30.9793H36.2073Z" fill="#0065DD"/>
<path fill-rule="evenodd" clip-rule="evenodd" d="M77.5818 30.9793V32.5359H79.1425V30.9793H77.5818Z" fill="#0065DD"/>
<path fill-rule="evenodd" clip-rule="evenodd" d="M56.8945 30.9793V32.5359H58.4548V30.9793H56.8945Z" fill="#0065DD"/>
<path fill-rule="evenodd" clip-rule="evenodd" d="M15.5145 30.9793V32.5359H17.0803V30.9793H15.5145Z" fill="#0065DD"/>
<path fill-rule="evenodd" clip-rule="evenodd" d="M15.5145 41.3013V42.8579H17.0803V41.3013H15.5145Z" fill="#0065DD"/>
<path fill-rule="evenodd" clip-rule="evenodd" d="M46.5482 30.9793V32.5359H48.114V30.9793H46.5482Z" fill="#0065DD"/>
<path fill-rule="evenodd" clip-rule="evenodd" d="M67.2356 30.9793V32.5359H68.8017V30.9793H67.2356Z" fill="#0065DD"/>
<path fill-rule="evenodd" clip-rule="evenodd" d="M25.8606 30.9793V32.5359H27.4209V30.9793H25.8606Z" fill="#0065DD"/>
<path fill-rule="evenodd" clip-rule="evenodd" d="M41.3751 30.9793V32.5359H42.9409V30.9793H41.3751Z" fill="#0065DD"/>
<path fill-rule="evenodd" clip-rule="evenodd" d="M62.0674 30.9793V32.5359H63.6281V30.9793H62.0674Z" fill="#0065DD"/>
<path fill-rule="evenodd" clip-rule="evenodd" d="M20.6876 30.9793V32.5359H22.2534V30.9793H20.6876Z" fill="#0065DD"/>
<path fill-rule="evenodd" clip-rule="evenodd" d="M51.7213 30.9793V32.5359H53.2816V30.9793H51.7213Z" fill="#0065DD"/>
<path fill-rule="evenodd" clip-rule="evenodd" d="M72.4088 30.9793V32.5359H73.9749V30.9793H72.4088Z" fill="#0065DD"/>
<path fill-rule="evenodd" clip-rule="evenodd" d="M12.9304 30.9793V32.5359H14.4907V30.9793H12.9304Z" fill="#0065DD"/>
<path fill-rule="evenodd" clip-rule="evenodd" d="M31.0338 30.9793V32.5359H32.5942V30.9793H31.0338Z" fill="#0065DD"/>
<path fill-rule="evenodd" clip-rule="evenodd" d="M38.791 30.9793V32.5359H40.3513V30.9793H38.791Z" fill="#0065DD"/>
<path fill-rule="evenodd" clip-rule="evenodd" d="M80.1714 30.9793V32.5359H81.7315V30.9793H80.1714Z" fill="#0065DD"/>
<path fill-rule="evenodd" clip-rule="evenodd" d="M59.4786 30.9793V32.5359H61.0442V30.9793H59.4786Z" fill="#0065DD"/>
<path fill-rule="evenodd" clip-rule="evenodd" d="M18.1035 30.9793V32.5359H19.6638V30.9793H18.1035Z" fill="#0065DD"/>
<path fill-rule="evenodd" clip-rule="evenodd" d="M49.1378 30.9793V32.5359H50.6981V30.9793H49.1378Z" fill="#0065DD"/>
<path fill-rule="evenodd" clip-rule="evenodd" d="M69.8251 30.9793V32.5359H71.3852V30.9793H69.8251Z" fill="#0065DD"/>
<path fill-rule="evenodd" clip-rule="evenodd" d="M28.4443 30.9793V32.5359H30.0102V30.9793H28.4443Z" fill="#0065DD"/>
<path fill-rule="evenodd" clip-rule="evenodd" d="M43.9645 30.9793V32.5359H45.5248V30.9793H43.9645Z" fill="#0065DD"/>
<path fill-rule="evenodd" clip-rule="evenodd" d="M64.6516 30.9793V32.5359H66.2116V30.9793H64.6516Z" fill="#0065DD"/>
<path fill-rule="evenodd" clip-rule="evenodd" d="M23.2769 30.9793V32.5359H24.8371V30.9793H23.2769Z" fill="#0065DD"/>
<path fill-rule="evenodd" clip-rule="evenodd" d="M54.3054 30.9793V32.5359H55.8712V30.9793H54.3054Z" fill="#0065DD"/>
<path fill-rule="evenodd" clip-rule="evenodd" d="M74.9983 30.9793V32.5359H76.5584V30.9793H74.9983Z" fill="#0065DD"/>
<path fill-rule="evenodd" clip-rule="evenodd" d="M33.618 30.9793V32.5359H35.1838V30.9793H33.618Z" fill="#0065DD"/>
<path fill-rule="evenodd" clip-rule="evenodd" d="M36.2073 36.1403V37.6969H37.7675V36.1403H36.2073Z" fill="#0065DD"/>
<path fill-rule="evenodd" clip-rule="evenodd" d="M77.5818 36.1403V37.6969H79.1425V36.1403H77.5818Z" fill="#0065DD"/>
<path fill-rule="evenodd" clip-rule="evenodd" d="M56.8945 36.1403V37.6969H58.4548V36.1403H56.8945Z" fill="#0065DD"/>
<path fill-rule="evenodd" clip-rule="evenodd" d="M15.5145 36.1403V37.6969H17.0803V36.1403H15.5145Z" fill="#0065DD"/>
<path fill-rule="evenodd" clip-rule="evenodd" d="M46.5482 36.1403V37.6969H48.114V36.1403H46.5482Z" fill="#0065DD"/>
<path fill-rule="evenodd" clip-rule="evenodd" d="M87.9286 36.1403V37.6969H89.4887V36.1403H87.9286Z" fill="#0065DD"/>
<path fill-rule="evenodd" clip-rule="evenodd" d="M67.2356 36.1403V37.6969H68.8017V36.1403H67.2356Z" fill="#0065DD"/>
<path fill-rule="evenodd" clip-rule="evenodd" d="M25.8606 36.1403V37.6969H27.4209V36.1403H25.8606Z" fill="#0065DD"/>
<path fill-rule="evenodd" clip-rule="evenodd" d="M41.3751 36.1403V37.6969H42.9409V36.1403H41.3751Z" fill="#0065DD"/>
<path fill-rule="evenodd" clip-rule="evenodd" d="M82.7551 36.1403V37.6969H84.3159V36.1403H82.7551Z" fill="#0065DD"/>
<path fill-rule="evenodd" clip-rule="evenodd" d="M62.0674 36.1403V37.6969H63.6281V36.1403H62.0674Z" fill="#0065DD"/>
<path fill-rule="evenodd" clip-rule="evenodd" d="M51.7213 36.1403V37.6969H53.2816V36.1403H51.7213Z" fill="#0065DD"/>
<path fill-rule="evenodd" clip-rule="evenodd" d="M10.3466 36.1403V37.6969H11.9069V36.1403H10.3466Z" fill="#0065DD"/>
<path fill-rule="evenodd" clip-rule="evenodd" d="M72.4088 36.1403V37.6969H73.9749V36.1403H72.4088Z" fill="#0065DD"/>
<path fill-rule="evenodd" clip-rule="evenodd" d="M31.0338 36.1403V37.6969H32.5942V36.1403H31.0338Z" fill="#0065DD"/>
<path fill-rule="evenodd" clip-rule="evenodd" d="M38.791 36.1403V37.6969H40.3513V36.1403H38.791Z" fill="#0065DD"/>
<path fill-rule="evenodd" clip-rule="evenodd" d="M80.1714 36.1403V37.6969H81.7315V36.1403H80.1714Z" fill="#0065DD"/>
<path fill-rule="evenodd" clip-rule="evenodd" d="M59.4786 36.1403V37.6969H61.0442V36.1403H59.4786Z" fill="#0065DD"/>
<path fill-rule="evenodd" clip-rule="evenodd" d="M18.1035 36.1403V37.6969H19.6638V36.1403H18.1035Z" fill="#0065DD"/>
<path fill-rule="evenodd" clip-rule="evenodd" d="M49.1378 36.1403V37.6969H50.6981V36.1403H49.1378Z" fill="#0065DD"/>
<path fill-rule="evenodd" clip-rule="evenodd" d="M90.5125 36.1403V37.6969H92.0726V36.1403H90.5125Z" fill="#0065DD"/>
<path fill-rule="evenodd" clip-rule="evenodd" d="M69.8251 36.1403V37.6969H71.3852V36.1403H69.8251Z" fill="#0065DD"/>
<path fill-rule="evenodd" clip-rule="evenodd" d="M28.4443 36.1403V37.6969H30.0102V36.1403H28.4443Z" fill="#0065DD"/>
<path fill-rule="evenodd" clip-rule="evenodd" d="M43.9645 36.1403V37.6969H45.5248V36.1403H43.9645Z" fill="#0065DD"/>
<path fill-rule="evenodd" clip-rule="evenodd" d="M85.3394 36.1403V37.6969H86.9049V36.1403H85.3394Z" fill="#0065DD"/>
<path fill-rule="evenodd" clip-rule="evenodd" d="M64.6516 36.1403V37.6969H66.2116V36.1403H64.6516Z" fill="#0065DD"/>
<path fill-rule="evenodd" clip-rule="evenodd" d="M54.3054 36.1403V37.6969H55.8712V36.1403H54.3054Z" fill="#0065DD"/>
<path fill-rule="evenodd" clip-rule="evenodd" d="M12.9304 36.1403V37.6969H14.4907V36.1403H12.9304Z" fill="#0065DD"/>
<path fill-rule="evenodd" clip-rule="evenodd" d="M12.9304 43.8791V45.4357H14.4907V43.8791H12.9304Z" fill="#0065DD"/>
<path fill-rule="evenodd" clip-rule="evenodd" d="M74.9983 36.1403V37.6969H76.5584V36.1403H74.9983Z" fill="#0065DD"/>
<path fill-rule="evenodd" clip-rule="evenodd" d="M33.618 36.1403V37.6969H35.1838V36.1403H33.618Z" fill="#0065DD"/>
<path fill-rule="evenodd" clip-rule="evenodd" d="M36.2073 25.8183V27.3748H37.7675V25.8183H36.2073Z" fill="#0065DD"/>
<path fill-rule="evenodd" clip-rule="evenodd" d="M77.5818 25.8183V27.3748H79.1425V25.8183H77.5818Z" fill="#0065DD"/>
<path fill-rule="evenodd" clip-rule="evenodd" d="M56.8945 25.8183V27.3748H58.4548V25.8183H56.8945Z" fill="#0065DD"/>
<path fill-rule="evenodd" clip-rule="evenodd" d="M15.5145 25.8183V27.3748H17.0803V25.8183H15.5145Z" fill="#0065DD"/>
<path fill-rule="evenodd" clip-rule="evenodd" d="M46.5482 25.8183V27.3748H48.114V25.8183H46.5482Z" fill="#0065DD"/>
<path fill-rule="evenodd" clip-rule="evenodd" d="M67.2356 25.8183V27.3748H68.8017V25.8183H67.2356Z" fill="#0065DD"/>
<path fill-rule="evenodd" clip-rule="evenodd" d="M25.8606 25.8183V27.3748H27.4209V25.8183H25.8606Z" fill="#0065DD"/>
<path fill-rule="evenodd" clip-rule="evenodd" d="M5.17303 36.1403V37.6969H6.73327V36.1403H5.17303Z" fill="#0065DD"/>
<path fill-rule="evenodd" clip-rule="evenodd" d="M41.3751 25.8183V27.3748H42.9409V25.8183H41.3751Z" fill="#0065DD"/>
<path fill-rule="evenodd" clip-rule="evenodd" d="M62.0674 25.8183V27.3748H63.6281V25.8183H62.0674Z" fill="#0065DD"/>
<path fill-rule="evenodd" clip-rule="evenodd" d="M20.6876 25.8183V27.3748H22.2534V25.8183H20.6876Z" fill="#0065DD"/>
<path fill-rule="evenodd" clip-rule="evenodd" d="M0 36.1403V37.6969H1.56028V36.1403H0Z" fill="#0065DD"/>
<path fill-rule="evenodd" clip-rule="evenodd" d="M51.7213 25.8183V27.3748H53.2816V25.8183H51.7213Z" fill="#0065DD"/>
<path fill-rule="evenodd" clip-rule="evenodd" d="M72.4088 25.8183V27.3748H73.9749V25.8183H72.4088Z" fill="#0065DD"/>
<path fill-rule="evenodd" clip-rule="evenodd" d="M31.0338 25.8183V27.3748H32.5942V25.8183H31.0338Z" fill="#0065DD"/>
<path fill-rule="evenodd" clip-rule="evenodd" d="M38.791 25.8183V27.3748H40.3513V25.8183H38.791Z" fill="#0065DD"/>
<path fill-rule="evenodd" clip-rule="evenodd" d="M80.1714 25.8183V27.3748H81.7315V25.8183H80.1714Z" fill="#0065DD"/>
<path fill-rule="evenodd" clip-rule="evenodd" d="M59.4786 25.8183V27.3748H61.0442V25.8183H59.4786Z" fill="#0065DD"/>
<path fill-rule="evenodd" clip-rule="evenodd" d="M18.1035 25.8183V27.3748H19.6638V25.8183H18.1035Z" fill="#0065DD"/>
<path fill-rule="evenodd" clip-rule="evenodd" d="M49.1378 25.8183V27.3748H50.6981V25.8183H49.1378Z" fill="#0065DD"/>
<path fill-rule="evenodd" clip-rule="evenodd" d="M69.8251 25.8183V27.3748H71.3852V25.8183H69.8251Z" fill="#0065DD"/>
<path fill-rule="evenodd" clip-rule="evenodd" d="M28.4443 25.8183V27.3748H30.0102V25.8183H28.4443Z" fill="#0065DD"/>
<path fill-rule="evenodd" clip-rule="evenodd" d="M43.9645 25.8183V27.3748H45.5248V25.8183H43.9645Z" fill="#0065DD"/>
<path fill-rule="evenodd" clip-rule="evenodd" d="M64.6516 25.8183V27.3748H66.2116V25.8183H64.6516Z" fill="#0065DD"/>
<path fill-rule="evenodd" clip-rule="evenodd" d="M23.2769 25.8183V27.3748H24.8371V25.8183H23.2769Z" fill="#0065DD"/>
<path fill-rule="evenodd" clip-rule="evenodd" d="M54.3054 25.8183V27.3748H55.8712V25.8183H54.3054Z" fill="#0065DD"/>
<path fill-rule="evenodd" clip-rule="evenodd" d="M74.9983 25.8183V27.3748H76.5584V25.8183H74.9983Z" fill="#0065DD"/>
<path fill-rule="evenodd" clip-rule="evenodd" d="M33.618 25.8183V27.3748H35.1838V25.8183H33.618Z" fill="#0065DD"/>
<path fill-rule="evenodd" clip-rule="evenodd" d="M10.2997 30.9793V32.5359H11.86V30.9793H10.2997Z" fill="#0065DD"/>
<path fill-rule="evenodd" clip-rule="evenodd" d="M5.1268 30.9793V32.5359H6.68704V30.9793H5.1268Z" fill="#0065DD"/>
<path fill-rule="evenodd" clip-rule="evenodd" d="M2.63553 38.7181V40.2747H4.20133V38.7181H2.63553Z" fill="#0065DD"/>
<path fill-rule="evenodd" clip-rule="evenodd" d="M2.63553 36.1403V37.6969H4.20133V36.1403H2.63553Z" fill="#0065DD"/>
<path fill-rule="evenodd" clip-rule="evenodd" d="M2.63553 30.9793V32.5359H4.19579V30.9793H2.63553Z" fill="#0065DD"/>
<path fill-rule="evenodd" clip-rule="evenodd" d="M7.71051 30.9793V32.5359H9.27635V30.9793H7.71051Z" fill="#0065DD"/>
</g>
<defs>
<clipPath id="clip0_7_2">
<rect width="100" height="48" fill="white"/>
</clipPath>
</defs>
</svg>
